<?xml version="1.0" encoding="utf-8"?>
<!-- Generator: Adobe Illustrator 23.1.0, SVG Export Plug-In . SVG Version: 6.00 Build 0)  -->
<svg version="1.1" xmlns="http://www.w3.org/2000/svg" xmlns:xlink="http://www.w3.org/1999/xlink" x="0px" y="0px"
	 viewBox="0 0 1000 1000" style="enable-background:new 0 0 1000 1000;" xml:space="preserve">
<style type="text/css">
	.st0{fill:#FFFFFF;}
</style>
<g id="Capa_2">
	<g>
		<path class="st0" d="M487.53,15.65C223.12,15.65,8,230.78,8,495.18C8,749.96,207.77,959,458.88,973.87v-9.08
			C212.75,949.95,17.05,744.99,17.05,495.18C17.05,235.75,228.1,24.7,487.53,24.7c206.14,0,381.75,133.27,445.18,318.18h9.56
			C878.48,152.91,698.7,15.65,487.53,15.65z"/>
	</g>
	<g id="Capa_3">
	</g>
	<g>
		<path class="st0" d="M591.07,933.49c2.52-1.24,6.63-2.72,10.9-3.81c6.1-1.54,10.3-1.49,13.85,0.15c2.92,1.2,5.1,3.64,6.04,7.35
			c1.15,4.56-0.85,9.32-5.37,12.41l0.04,0.14c4.77-0.01,10.98,2.37,12.75,9.39c1.03,4.07,0.2,7.57-1.6,10.48
			c-2.53,3.85-7.51,6.6-15.23,8.56c-4.21,1.07-7.5,1.6-9.61,1.83L591.07,933.49z M602.07,951.31l5.54-1.4
			c6.45-1.63,9.39-5.96,8.23-10.52c-1.4-5.54-6.16-6.65-12.33-5.09c-2.8,0.71-4.37,1.33-5.29,1.79L602.07,951.31z M607.81,973.97
			c1.25-0.09,3.02-0.47,5.19-1.02c6.31-1.6,11.55-5.39,9.81-12.26c-1.63-6.46-7.85-7.72-14.51-6.03l-5.05,1.28L607.81,973.97z"/>
		<path class="st0" d="M642.89,918.69c2.73-1.77,6.84-3.76,10.89-5.35c6.27-2.46,10.76-2.89,14.6-1.44
			c3.08,1.12,5.58,3.72,6.95,7.23c2.35,6,0.13,11.45-4.02,14.94l0.08,0.2c3.98-0.16,7.34,2.25,10.26,6.55
			c3.96,5.76,6.76,9.72,8.39,11.1l-6.07,2.37c-1.24-0.99-3.78-4.5-7.28-9.66c-3.8-5.74-7.15-7.15-12.56-5.27l-5.53,2.16l7.71,19.68
			l-5.86,2.3L642.89,918.69z M656.86,937.09l6-2.35c6.27-2.45,8.9-7.45,6.87-12.64c-2.3-5.86-7.55-6.76-13.77-4.4
			c-2.83,1.11-4.75,2.17-5.58,2.81L656.86,937.09z"/>
		<path class="st0" d="M697.19,894.26l14.07,25.22c5.32,9.55,11.81,11.23,17.5,8.06c6.32-3.52,8.04-9.95,2.79-19.37l-14.07-25.22
			l5.56-3.1l13.85,24.84c7.3,13.08,3.4,22.3-5.82,27.44c-8.72,4.86-18.08,3.54-25.45-9.67l-13.99-25.09L697.19,894.26z"/>
		<path class="st0" d="M773.69,904.82l-29.67-38.73l5.46-4.18l27.42,10.09c6.35,2.34,11.72,4.7,16.6,7.26l0.07-0.15
			c-4.42-4.82-8.15-9.44-12.77-15.48l-12.41-16.2l4.71-3.61l29.67,38.74l-5.06,3.88l-27.35-10.24c-6-2.24-11.98-4.69-17.14-7.38
			l-0.13,0.19c4.03,4.66,7.71,9.23,12.64,15.67l12.68,16.55L773.69,904.82z"/>
		<path class="st0" d="M828.14,827.25l-13.41,13.4l12.43,12.44l14.94-14.94l3.74,3.73l-19.4,19.39l-34.49-34.5l18.63-18.63
			l3.74,3.74l-14.18,14.17l10.9,10.9l13.41-13.4L828.14,827.25z"/>
		<path class="st0" d="M837.08,785.34l-9.15,11.67l-4.22-3.3l22.29-28.42l4.22,3.3l-9.2,11.73l34.17,26.8l-3.93,5.01L837.08,785.34z
			"/>
		<path class="st0" d="M867.97,741.19l-7.64,12.72l-4.59-2.76l18.59-30.95l4.59,2.75l-7.67,12.78l37.22,22.35l-3.28,5.46
			L867.97,741.19z"/>
		<path class="st0" d="M917.33,689.84l-7.79,17.29l16.04,7.23l8.69-19.27l4.82,2.17l-11.27,25.02l-44.49-20.05l10.83-24.03
			l4.82,2.17l-8.24,18.29l14.06,6.33l7.79-17.29L917.33,689.84z"/>
	</g>
	<g>
		<path class="st0" d="M822.74,604.09c-2.13-2.66-4.68-4-7.7-4c-3.01,0-5.59,1.34-7.72,4c-7.09,12.4-13.29,22.58-18.61,30.58
			c-6.91,10.28-13.57,17.8-19.95,22.6c-6.38,4.78-11.8,7.16-16.23,7.16c-10.45,0-20.83-11.8-31.11-35.36
			c-6.73-15.24-13.37-32-19.92-50.25c-8-22.71-15.87-41.84-23.67-57.44c-5.7-10.45-9.75-17.01-12.25-19.67
			c-1.42-1.77-2.13-3.01-2.13-3.72c0-0.71,0.99-1.42,2.94-2.15c8.68-3.34,19.85-11.87,33.51-25.52
			c20.55-22.15,34.98-45.06,43.34-68.73c8.33-23.67,12.48-44.02,12.48-61.03c0-31.72-11.06-50.88-33.24-57.44
			c-4.08-0.89-7.97-1.32-11.69-1.32c-12.4,0-23.57,4.51-33.49,13.54c-23.95,21.64-41.67,60.2-53.18,115.68
			c-4.96,23.74-8.15,45.89-9.57,66.47c-1.42,6.56-2.3,28.53-2.66,65.94c-0.33,37.26-0.97,67.78-3.66,86.06
			c-2.06,14.04-21.19,16.64-27.1,3.73c-4.93-10.76-6.38-27.97-6.13-54.4c0.76-30.15,6.3-74.17,16.66-132.14
			c10.1-53.87,15.14-93.94,15.14-120.19c0-21.09-3.42-38.1-10.23-51.03c-6.83-12.96-19.54-19.42-38.17-19.42
			c-25.87,0-51.74,12.4-77.64,37.21c-35.62,34.05-71.33,84.12-107.15,150.24c-14.53,26.96-26.22,50.17-35.08,69.66
			c-8.18,17.39-14.68,28.07-19.54,32.05c-4.89,4-8.91,5.97-12.1,5.97c-5.34,0-11.62-4.56-18.88-13.69
			c-7.26-9.11-13.57-13.69-18.88-13.69c-3.19,0-6.56,1.27-10.1,3.72c-6.02,4.1-13.29,13.92-21.82,29.52
			c-7.26,14.2-12.81,26.38-16.61,36.58c-3.82,10.18-6.48,17.9-7.97,23.14c-1.52,5.21-2.63,7.82-3.32,7.82
			c-0.53,0-1.27-3.72-2.13-11.16c-1.06-9.92-3.92-27.47-8.53-52.63c-7.97-38.3-17.06-67.06-27.24-86.29
			c-10.2-19.24-18.99-30.93-26.33-35.11c-7.37-4.15-13.09-6.23-17.16-6.23c-2.66,0-4.96,0.61-6.91,1.85
			c-3.72,2.48-5.57,5.85-5.57,10.1c0,4.43,1.85,9.95,5.57,16.5c21.82,32.78,45.11,115.48,69.94,248.07
			c1.77,6.73,6.2,10.1,13.29,10.1c8.51,0,13.21-4.61,14.1-13.82c0.53-18.99,2.48-37.82,5.85-56.5c3.37-18.71,9.64-40.02,18.88-63.97
			c6.73-17.19,11.9-28.6,15.54-34.3c3.62-5.67,6.61-8.51,8.91-8.51c2.66,0,5.92,2.94,9.85,8.78c7.97,12.05,17.62,18.07,28.98,18.07
			c13.64,0,24.88-6.63,33.77-19.95c9.75-14.53,19.67-34.2,29.77-59.03c10.81-27.11,25.44-56.93,43.87-89.46
			c18.43-32.53,44.58-64.22,78.45-95.05c22.15-19.52,36.2-29.69,42.15-30.58c1.14-0.18,2.2-0.33,3.16-0.46
			c4.02-0.58,6.48-0.89,7.34-0.89c8.68,0,14.07,5.42,16.23,16.23c1.06,5.32,1.59,11.52,1.59,18.61c0,9.29-1.44,23.72-4.33,43.29
			c-1.77,11.87-4.05,25.67-6.86,41.36c-1.22,6.78-2.56,13.95-3.97,21.44c-5.49,28.73-10.33,57.31-14.5,85.76
			c-4,27.39-6.1,52.6-6.23,75.61c-0.03,0.91-0.03,1.8-0.03,2.68c0,30.86,4.81,55.59,14.38,74.19c9.04,17.54,24.2,28.35,45.46,32.43
			c2.48,0.35,4.96,0.53,7.44,0.53c4.43,0,8.61-0.63,12.53-1.92c7.09-2.3,13.37-6.71,18.86-13.21c0,0,0,0,0,0
			c3.16-5.28,5.05-12.03,5.77-20.2c0.05-0.2,0.05-0.4,0.08-0.61c0.35-5.67,0.53-28,0.53-67c0-22.86-0.08-38.27-0.25-46.25
			c0-17.57,0.13-27.39,0.4-29.52c0.25-2.13,1.19-3.19,2.78-3.19c0.35,0,0.94,0.08,1.72,0.25c0.81,0.18,2,0.28,3.59,0.28
			c7.97,10.45,15.04,23.11,21.14,38.02c6.13,14.88,11.85,30.48,17.16,46.78c6.73,20.58,14,39.46,21.79,56.65
			c7.8,17.19,16,28.81,24.6,34.83c8.58,6.02,16.61,9.04,24.05,9.04c6.91,0,14.53-1.77,22.88-5.32
			c10.45-4.96,18.61-11.97,24.45-21.01c5.85-9.04,10.99-18.71,15.42-28.98c3.37-7.62,7.01-14.99,10.91-22.07
			c0.89-1.77,1.32-3.44,1.32-5.04C823.8,606.57,823.45,605.33,822.74,604.09z M644.61,470.86c-2.3,2.13-3.92,3.19-4.78,3.19
			c-0.71,0-2.13-1.06-4.25-3.19c-0.91-0.89-1.34-2.38-1.34-4.51c0-1.42,0.28-4.96,0.78-10.66c4.63-40.4,12.07-72.5,22.35-96.24
			c16.48-38.65,34.02-57.97,52.65-57.97c2.66,0,5.21,0.63,7.7,1.85c6.73,3.75,10.1,11.8,10.1,24.2
			c-1.42,26.43-9.11,52.22-23.11,77.38C691.21,428.84,671.19,450.84,644.61,470.86z"/>
	</g>
</g>
<g id="Capa_4">
</g>
<g id="Capa_5">
	<path class="st0" d="M995.35,489.89c-19.35,2.62-34.67,17.94-37.29,37.29c-0.06,0.48-0.73,0.48-0.79,0
		c-2.62-19.35-17.94-34.67-37.29-37.29c-0.48-0.06-0.48-0.73,0-0.79c19.35-2.62,34.67-17.94,37.29-37.29c0.06-0.48,0.73-0.48,0.79,0
		c2.62,19.35,17.94,34.67,37.29,37.29C995.83,489.16,995.83,489.82,995.35,489.89z"/>
</g>
</svg>
